<?xml version="1.0" standalone="no"?>
<!DOCTYPE svg PUBLIC "-//W3C//DTD SVG 20010904//EN"
 "http://www.w3.org/TR/2001/REC-SVG-20010904/DTD/svg10.dtd">
<svg version="1.0" xmlns="http://www.w3.org/2000/svg"
 width="512.000000pt" height="512.000000pt" viewBox="0 0 512.000000 512.000000"
 preserveAspectRatio="xMidYMid meet">

<g transform="translate(0.000000,512.000000) scale(0.100000,-0.100000)"
fill="#000000" stroke="none">
<path d="M2903 4452 c-28 -10 -75 -37 -105 -60 -29 -22 -402 -391 -829 -819
-733 -735 -777 -782 -804 -843 -59 -134 -43 -298 40 -408 24 -31 393 -407 821
-834 892 -890 824 -833 999 -833 138 0 177 20 317 163 139 140 163 188 163
317 0 160 35 116 -659 813 l-611 612 611 613 c694 696 659 652 659 812 0 131
-30 187 -172 326 -133 129 -174 151 -293 156 -64 3 -98 -1 -137 -15z"/>
</g>
</svg>
