<svg width="359" height="254" viewBox="0 0 359 254" fill="none" xmlns="http://www.w3.org/2000/svg">
<path d="M260 253.25L282.06 195H353.94L260 253.25Z" fill="#FF5050"/>
<rect width="359" height="201" rx="20" fill="#FF5050"/>
<path d="M63.1064 51.6484V87H55.7822V51.6484H63.1064ZM80.5869 87V51.6484H87.9111V80.9453H103.146V87H80.5869ZM115.206 51.6484V87H107.882V51.6484H115.206ZM121.163 87V51.6484H128.487V67.3223H128.976L141.817 51.6484H150.655L137.472 67.4688L150.802 87H142.013L132.198 72.4004L128.487 76.8926V87H121.163ZM154.317 87V51.6484H178.048V57.7031H161.642V66.2969H176.827V72.3516H161.642V80.9453H178.097V87H154.317ZM193.917 57.7031V51.6484H222.872V57.7031H212.032V87H204.757V57.7031H193.917ZM227.413 87V51.6484H234.737V66.2969H250.069V51.6484H257.442V87H250.069V72.3516H234.737V87H227.413ZM270.724 51.6484V87H263.399V51.6484H270.724ZM295.87 61.7559C295.577 58.9727 293.331 57.3125 289.767 57.3125C286.056 57.3125 284.005 59.0215 283.956 61.3652C283.907 63.9043 286.593 65.0762 289.62 65.7598L292.794 66.541C298.849 67.9082 303.39 70.9844 303.39 76.8926C303.39 83.3867 298.312 87.4883 289.718 87.4883C281.173 87.4883 275.704 83.5332 275.509 75.9648H282.638C282.882 79.5293 285.714 81.3359 289.62 81.3359C293.478 81.3359 295.968 79.5293 295.968 76.8926C295.968 74.5 293.771 73.377 289.913 72.4004L286.056 71.4727C280.099 70.0078 276.437 67.0293 276.437 61.8535C276.437 55.4082 282.101 51.1602 289.815 51.1602C297.628 51.1602 302.804 55.5059 302.901 61.7559H295.87ZM61.5684 147V111.648H75.4355C83.4922 111.648 88.082 116.58 88.082 123.562C88.082 130.643 83.3945 135.477 75.2402 135.477H68.8926V147H61.5684ZM68.8926 129.568H74.0684C78.4141 129.568 80.5137 127.127 80.5137 123.562C80.5137 120.047 78.4141 117.654 74.0684 117.654H68.8926V129.568ZM92.7207 147V111.648H106.588C114.645 111.648 119.234 116.189 119.234 123.172C119.234 128.006 117.013 131.521 112.984 133.23L120.504 147H112.398L105.66 134.451H100.045V147H92.7207ZM100.045 128.494H105.221C109.566 128.494 111.666 126.688 111.666 123.172C111.666 119.607 109.566 117.654 105.221 117.654H100.045V128.494ZM156.686 129.324C156.686 140.848 149.508 147.488 140.182 147.488C130.758 147.488 123.629 140.799 123.629 129.324C123.629 117.801 130.758 111.16 140.182 111.16C149.508 111.16 156.686 117.801 156.686 129.324ZM149.215 129.324C149.215 121.756 145.65 117.654 140.182 117.654C134.713 117.654 131.1 121.756 131.1 129.324C131.1 136.893 134.713 140.994 140.182 140.994C145.65 140.994 149.215 136.893 149.215 129.324ZM176.07 111.648H183.346V136.307C183.346 143.191 178.512 147.488 171.383 147.488C164.986 147.488 159.957 144.119 160.006 137.137H167.33C167.379 139.92 169.088 141.58 171.725 141.58C174.508 141.58 176.07 139.773 176.07 136.307V111.648ZM189.303 147V111.648H213.033V117.703H196.627V126.297H211.812V132.352H196.627V140.945H213.082V147H189.303ZM242.379 123.953C241.793 120.047 238.766 117.654 234.664 117.654C229.146 117.654 225.533 121.902 225.533 129.324C225.533 136.941 229.195 140.994 234.615 140.994C238.668 140.994 241.646 138.748 242.379 134.939L249.801 134.988C248.971 141.531 243.502 147.488 234.518 147.488C225.045 147.488 218.062 140.848 218.062 129.324C218.062 117.801 225.191 111.16 234.518 111.16C242.672 111.16 248.824 115.848 249.801 123.953H242.379ZM253.561 117.703V111.648H282.516V117.703H271.676V147H264.4V117.703H253.561ZM295.504 111.648L294.869 136.404H288.619L287.984 111.648H295.504ZM291.793 147.439C289.498 147.439 287.643 145.584 287.691 143.338C287.643 141.092 289.498 139.285 291.793 139.285C293.941 139.285 295.846 141.092 295.846 143.338C295.846 145.584 293.941 147.439 291.793 147.439Z" fill="black"/>
</svg>
