<?xml version="1.0" standalone="no"?>
<!DOCTYPE svg PUBLIC "-//W3C//DTD SVG 20010904//EN"
 "http://www.w3.org/TR/2001/REC-SVG-20010904/DTD/svg10.dtd">
<svg version="1.0" xmlns="http://www.w3.org/2000/svg"
 width="512.000000pt" height="512.000000pt" viewBox="0 0 512.000000 512.000000"
 preserveAspectRatio="xMidYMid meet">

<g transform="translate(0.000000,512.000000) scale(0.100000,-0.100000)"
fill="#000000" stroke="none">
<path d="M1988 4457 c-71 -27 -124 -67 -220 -165 -128 -130 -153 -180 -153
-307 1 -160 -29 -123 664 -817 l606 -608 -607 -607 c-694 -695 -663 -656 -663
-818 0 -130 29 -186 168 -322 135 -133 184 -158 312 -158 164 0 86 -67 1012
858 944 942 878 864 878 1047 0 183 60 111 -867 1041 -906 910 -849 860 -1007
866 -55 2 -99 -2 -123 -10z"/>
</g>
</svg>
