<svg width="294" height="294" viewBox="0 0 244 244" fill="none" xmlns="http://www.w3.org/2000/svg">
<path d="M106.253 11.2961C112.231 -2.48154 131.769 -2.48154 137.747 11.2961C142.145 21.4338 154.837 24.8346 163.715 18.2542C175.78 9.3111 192.701 19.0806 190.989 34.001C189.729 44.9796 199.02 54.2709 209.999 53.0109C224.919 51.2986 234.689 68.2198 225.746 80.2851C219.165 89.1629 222.566 101.855 232.704 106.253C246.482 112.231 246.482 131.769 232.704 137.747C222.566 142.145 219.165 154.837 225.746 163.715C234.689 175.78 224.919 192.701 209.999 190.989C199.02 189.729 189.729 199.02 190.989 209.999C192.701 224.919 175.78 234.689 163.715 225.746C154.837 219.165 142.145 222.566 137.747 232.704C131.769 246.482 112.231 246.482 106.253 232.704C101.855 222.566 89.1629 219.165 80.2851 225.746C68.2198 234.689 51.2986 224.919 53.0109 209.999C54.2709 199.02 44.9796 189.729 34.001 190.989C19.0806 192.701 9.3111 175.78 18.2542 163.715C24.8346 154.837 21.4338 142.145 11.2961 137.747C-2.48154 131.769 -2.48154 112.231 11.2961 106.253C21.4338 101.855 24.8346 89.1629 18.2542 80.2852C9.3111 68.2198 19.0805 51.2986 34.001 53.0109C44.9796 54.2709 54.2709 44.9796 53.0109 34.001C51.2986 19.0805 68.2198 9.3111 80.2852 18.2542C89.1629 24.8346 101.855 21.4338 106.253 11.2961Z" fill="#75FF72"/>
</svg>
