<svg width="2127" height="1179" viewBox="0 0 2127 1179" fill="none" xmlns="http://www.w3.org/2000/svg">
<path d="M325 20C325 8.95432 333.954 0 345 0H787.38C798.426 0 807.38 8.95431 807.38 20V99.5489C807.38 110.595 816.334 119.549 827.38 119.549H1781C1792.05 119.549 1801 128.503 1801 139.549V1159C1801 1170.05 1792.05 1179 1781 1179H345C333.954 1179 325 1170.05 325 1159V20Z" fill="#49F945" fill-opacity="0.8"/>
<rect x="325" y="190" width="1476" height="989" rx="20" fill="#75FF72" fill-opacity="0.8"/>
<path d="M108.91 862L7.83594 508.484H87.9141L147.484 755.555H150.414L215.355 508.484H284.203L349.145 756.043H352.074L411.645 508.484H491.723L390.648 862H318.871L251.488 628.602H248.559L180.688 862H108.91ZM602.562 508.484V862H529.32V508.484H602.562ZM854.027 609.559C851.098 581.727 828.637 565.125 792.992 565.125C755.883 565.125 735.375 582.215 734.887 605.652C734.398 631.043 761.254 642.762 791.527 649.598L823.266 657.41C883.812 671.082 929.223 701.844 929.223 760.926C929.223 825.867 878.441 866.883 792.504 866.883C707.055 866.883 652.367 827.332 650.414 751.648H721.703C724.145 787.293 752.465 805.359 791.527 805.359C830.102 805.359 855.004 787.293 855.004 760.926C855.004 737 833.031 725.77 794.457 716.004L755.883 706.727C696.312 692.078 659.691 662.293 659.691 610.535C659.691 546.082 716.332 503.602 793.48 503.602C871.605 503.602 923.363 547.059 924.34 609.559H854.027ZM1213.4 631.531C1207.54 592.469 1177.27 568.543 1136.25 568.543C1081.08 568.543 1044.95 611.023 1044.95 685.242C1044.95 761.414 1081.57 801.941 1135.77 801.941C1176.29 801.941 1206.08 779.48 1213.4 741.395L1287.62 741.883C1279.32 807.312 1224.63 866.883 1134.79 866.883C1040.06 866.883 970.238 800.477 970.238 685.242C970.238 570.008 1041.53 503.602 1134.79 503.602C1216.33 503.602 1277.86 550.477 1287.62 631.531H1213.4ZM1662.62 685.242C1662.62 800.477 1590.84 866.883 1497.58 866.883C1403.34 866.883 1332.05 799.988 1332.05 685.242C1332.05 570.008 1403.34 503.602 1497.58 503.602C1590.84 503.602 1662.62 570.008 1662.62 685.242ZM1587.91 685.242C1587.91 609.559 1552.27 568.543 1497.58 568.543C1442.89 568.543 1406.76 609.559 1406.76 685.242C1406.76 760.926 1442.89 801.941 1497.58 801.941C1552.27 801.941 1587.91 760.926 1587.91 685.242ZM1715.36 508.484H1806.18L1904.32 748.23H1908.23L2006.37 508.484H2097.19V862H2025.9V630.555H2022.97L1930.69 860.535H1881.86L1789.57 629.578H1786.64V862H1715.36V508.484Z" fill="black"/>
</svg>
